<mxfile host="app.diagrams.net" modified="2022-10-14T22:06:20.535Z" agent="5.0 (Linux; Android 11; Redmi Note 8 Pro) AppleWebKit/537.36 (KHTML, like Gecko) Chrome/106.0.0.0 Mobile Safari/537.36" etag="yTTRNdd8vrc8ligCJ2EF" version="20.4.1" type="github">
  <diagram id="2DUmAV6tofM4kdRj5UmX" name="Page-1">
    <mxGraphModel dx="568" dy="1080" grid="0" gridSize="10" guides="1" tooltips="1" connect="1" arrows="1" fold="1" page="0" pageScale="1" pageWidth="827" pageHeight="1169" math="0" shadow="0">
      <root>
        <mxCell id="0" />
        <mxCell id="1" parent="0" />
        <mxCell id="9tlqeo48AEgScgQkNxMF-10" value="Bot account " style="swimlane;whiteSpace=wrap;hachureGap=4;" vertex="1" parent="1">
          <mxGeometry x="300" y="20" width="280" height="570" as="geometry" />
        </mxCell>
        <mxCell id="9tlqeo48AEgScgQkNxMF-11" value="" style="ellipse;shape=startState;fillColor=#000000;strokeColor=#ff0000;hachureGap=4;" vertex="1" parent="9tlqeo48AEgScgQkNxMF-10">
          <mxGeometry x="60" y="40" width="30" height="30" as="geometry" />
        </mxCell>
        <mxCell id="9tlqeo48AEgScgQkNxMF-12" value="" style="edgeStyle=elbowEdgeStyle;elbow=horizontal;verticalAlign=bottom;endArrow=open;endSize=8;strokeColor=#FF0000;endFill=1;rounded=0" edge="1" parent="9tlqeo48AEgScgQkNxMF-10" source="9tlqeo48AEgScgQkNxMF-11" target="9tlqeo48AEgScgQkNxMF-13">
          <mxGeometry x="40" y="20" as="geometry">
            <mxPoint x="55" y="90" as="targetPoint" />
          </mxGeometry>
        </mxCell>
        <mxCell id="9tlqeo48AEgScgQkNxMF-13" value="idle" style="hachureGap=4;" vertex="1" parent="9tlqeo48AEgScgQkNxMF-10">
          <mxGeometry x="20" y="110" width="110" height="50" as="geometry" />
        </mxCell>
        <mxCell id="9tlqeo48AEgScgQkNxMF-14" value="check for &#xa;new commands" style="hachureGap=4;" vertex="1" parent="9tlqeo48AEgScgQkNxMF-10">
          <mxGeometry x="20" y="220" width="110" height="50" as="geometry" />
        </mxCell>
        <mxCell id="9tlqeo48AEgScgQkNxMF-15" value="" style="endArrow=open;strokeColor=#FF0000;endFill=1;rounded=0" edge="1" parent="9tlqeo48AEgScgQkNxMF-10" source="9tlqeo48AEgScgQkNxMF-13" target="9tlqeo48AEgScgQkNxMF-14">
          <mxGeometry relative="1" as="geometry" />
        </mxCell>
        <mxCell id="9tlqeo48AEgScgQkNxMF-16" value="command queue" style="hachureGap=4;" vertex="1" parent="9tlqeo48AEgScgQkNxMF-10">
          <mxGeometry x="20" y="325" width="110" height="50" as="geometry" />
        </mxCell>
        <mxCell id="9tlqeo48AEgScgQkNxMF-17" value="" style="endArrow=open;strokeColor=#FF0000;endFill=1;rounded=0" edge="1" parent="9tlqeo48AEgScgQkNxMF-10" source="9tlqeo48AEgScgQkNxMF-14" target="9tlqeo48AEgScgQkNxMF-16">
          <mxGeometry relative="1" as="geometry" />
        </mxCell>
        <mxCell id="9tlqeo48AEgScgQkNxMF-18" value="queue empty" style="rhombus;fillColor=#ffffc0;strokeColor=#ff0000;hachureGap=4;" vertex="1" parent="9tlqeo48AEgScgQkNxMF-10">
          <mxGeometry x="150" y="225" width="80" height="40" as="geometry" />
        </mxCell>
        <mxCell id="9tlqeo48AEgScgQkNxMF-19" value="yes" style="edgeStyle=elbowEdgeStyle;elbow=horizontal;align=left;verticalAlign=bottom;endArrow=open;endSize=8;strokeColor=#FF0000;exitX=0.5;exitY=0;endFill=1;rounded=0;entryX=0.75;entryY=0.5;entryPerimeter=0" edge="1" parent="9tlqeo48AEgScgQkNxMF-10" source="9tlqeo48AEgScgQkNxMF-18" target="9tlqeo48AEgScgQkNxMF-22">
          <mxGeometry x="-1" relative="1" as="geometry">
            <mxPoint x="160" y="150" as="targetPoint" />
            <Array as="points">
              <mxPoint x="190" y="180" />
            </Array>
          </mxGeometry>
        </mxCell>
        <mxCell id="9tlqeo48AEgScgQkNxMF-20" value="no" style="edgeStyle=elbowEdgeStyle;elbow=horizontal;align=left;verticalAlign=top;endArrow=open;endSize=8;strokeColor=#FF0000;endFill=1;rounded=0" edge="1" parent="9tlqeo48AEgScgQkNxMF-10" source="9tlqeo48AEgScgQkNxMF-18" target="9tlqeo48AEgScgQkNxMF-24">
          <mxGeometry x="-1" relative="1" as="geometry">
            <mxPoint x="190" y="305" as="targetPoint" />
          </mxGeometry>
        </mxCell>
        <mxCell id="9tlqeo48AEgScgQkNxMF-21" value="" style="endArrow=open;strokeColor=#FF0000;endFill=1;rounded=0" edge="1" parent="9tlqeo48AEgScgQkNxMF-10" source="9tlqeo48AEgScgQkNxMF-14" target="9tlqeo48AEgScgQkNxMF-18">
          <mxGeometry relative="1" as="geometry" />
        </mxCell>
        <mxCell id="9tlqeo48AEgScgQkNxMF-22" value="" style="shape=line;strokeWidth=6;strokeColor=#ff0000;rotation=90;hachureGap=4;" vertex="1" parent="9tlqeo48AEgScgQkNxMF-10">
          <mxGeometry x="130" y="127.5" width="50" height="15" as="geometry" />
        </mxCell>
        <mxCell id="9tlqeo48AEgScgQkNxMF-23" value="" style="edgeStyle=elbowEdgeStyle;elbow=horizontal;verticalAlign=bottom;endArrow=open;endSize=8;strokeColor=#FF0000;endFill=1;rounded=0" edge="1" parent="9tlqeo48AEgScgQkNxMF-10" source="9tlqeo48AEgScgQkNxMF-22" target="9tlqeo48AEgScgQkNxMF-13">
          <mxGeometry x="130" y="90" as="geometry">
            <mxPoint x="230" y="140" as="targetPoint" />
          </mxGeometry>
        </mxCell>
        <mxCell id="9tlqeo48AEgScgQkNxMF-24" value="dispatch&#xa;command&#xa;worker thread" style="hachureGap=4;" vertex="1" parent="9tlqeo48AEgScgQkNxMF-10">
          <mxGeometry x="140" y="325" width="110" height="50" as="geometry" />
        </mxCell>
        <mxCell id="9tlqeo48AEgScgQkNxMF-25" value="critical&#xa;section" style="shape=note;whiteSpace=wrap;size=17;hachureGap=4;" vertex="1" parent="9tlqeo48AEgScgQkNxMF-10">
          <mxGeometry x="105" y="490" width="100" height="50" as="geometry" />
        </mxCell>
        <mxCell id="9tlqeo48AEgScgQkNxMF-26" value="" style="endArrow=none;strokeColor=#FF0000;endFill=0;rounded=0;dashed=1" edge="1" parent="9tlqeo48AEgScgQkNxMF-10" source="9tlqeo48AEgScgQkNxMF-16" target="9tlqeo48AEgScgQkNxMF-25">
          <mxGeometry relative="1" as="geometry" />
        </mxCell>
        <mxCell id="9tlqeo48AEgScgQkNxMF-27" value="" style="whiteSpace=wrap;strokeColor=#FF0000;fillColor=#FF0000;hachureGap=4;" vertex="1" parent="9tlqeo48AEgScgQkNxMF-10">
          <mxGeometry x="245" y="395" width="5" height="45" as="geometry" />
        </mxCell>
        <mxCell id="9tlqeo48AEgScgQkNxMF-28" value="" style="edgeStyle=elbowEdgeStyle;elbow=horizontal;entryX=0;entryY=0.5;strokeColor=#FF0000;endArrow=open;endFill=1;rounded=0" edge="1" parent="9tlqeo48AEgScgQkNxMF-10" source="9tlqeo48AEgScgQkNxMF-24" target="9tlqeo48AEgScgQkNxMF-27">
          <mxGeometry width="100" height="100" relative="1" as="geometry">
            <mxPoint x="60" y="480" as="sourcePoint" />
            <mxPoint x="160" y="380" as="targetPoint" />
            <Array as="points">
              <mxPoint x="195" y="400" />
            </Array>
          </mxGeometry>
        </mxCell>
        <mxCell id="9tlqeo48AEgScgQkNxMF-29" value="Assistant account " style="swimlane;whiteSpace=wrap;hachureGap=4;" vertex="1" parent="1">
          <mxGeometry x="580" y="20" width="286" height="570" as="geometry" />
        </mxCell>
        <object label="process&#xa;command" Uuy="" Ytyty="" id="9tlqeo48AEgScgQkNxMF-30">
          <mxCell style="hachureGap=4;" vertex="1" parent="9tlqeo48AEgScgQkNxMF-29">
            <mxGeometry x="90" y="405" width="110" height="50" as="geometry" />
          </mxCell>
        </object>
        <mxCell id="9tlqeo48AEgScgQkNxMF-31" value="" style="edgeStyle=elbowEdgeStyle;elbow=horizontal;strokeColor=#FF0000;endArrow=open;endFill=1;rounded=0;entryX=0.25;entryY=0.5;entryPerimeter=0" edge="1" parent="9tlqeo48AEgScgQkNxMF-29" target="9tlqeo48AEgScgQkNxMF-22">
          <mxGeometry width="100" height="100" relative="1" as="geometry">
            <mxPoint x="-30" y="410" as="sourcePoint" />
            <mxPoint x="-120" y="120" as="targetPoint" />
            <Array as="points">
              <mxPoint x="-10" y="135" />
            </Array>
          </mxGeometry>
        </mxCell>
        <mxCell id="9tlqeo48AEgScgQkNxMF-32" value="" style="edgeStyle=none;strokeColor=#FF0000;endArrow=open;endFill=1;rounded=0" edge="1" parent="9tlqeo48AEgScgQkNxMF-29" target="9tlqeo48AEgScgQkNxMF-30">
          <mxGeometry width="100" height="100" relative="1" as="geometry">
            <mxPoint x="-30" y="429.5" as="sourcePoint" />
            <mxPoint x="90" y="429.5" as="targetPoint" />
          </mxGeometry>
        </mxCell>
        <mxCell id="9tlqeo48AEgScgQkNxMF-33" value="" style="ellipse;shape=endState;fillColor=#000000;strokeColor=#ff0000;hachureGap=4;" vertex="1" parent="9tlqeo48AEgScgQkNxMF-29">
          <mxGeometry x="130" y="500" width="30" height="30" as="geometry" />
        </mxCell>
        <mxCell id="9tlqeo48AEgScgQkNxMF-34" value="" style="endArrow=open;strokeColor=#FF0000;endFill=1;rounded=0" edge="1" parent="9tlqeo48AEgScgQkNxMF-29" source="9tlqeo48AEgScgQkNxMF-30" target="9tlqeo48AEgScgQkNxMF-33">
          <mxGeometry relative="1" as="geometry" />
        </mxCell>
      </root>
    </mxGraphModel>
  </diagram>
</mxfile>
